# xmcd CD database file
#
# Track frame offsets:
#	150
#	11850
#	21940
#	32305
#	48535
#	60290
#	76452
#	89135
#	100000
#	114512
#	122162
#	135847
#
# Disc length: 2046 seconds
#
# Revision: 0
# Processed by: cddbd v1.5.2PL0 Copyright (c) Steve Scherf et al.
# Submitted via: CDex 1.70beta2
#
DISCID=9107fc0c
DTITLE=Jet Stream - Jet Stream 8
DYEAR=1900
DGENRE=Lounge
TTITLE0=ミスター・ロンリー
TTITLE1=ある恋の物語
TTITLE2=この胸のときめきを
TTITLE3=やさしく歌って
TTITLE4=マイ・ラブ
TTITLE5=レット・イット・ビー
TTITLE6=闘牛士のマンボ
TTITLE7=奥様お手をどうぞ
TTITLE8=プリテンド
TTITLE9=愛のレッスン
TTITLE10=アルハンブラの思い出
TTITLE11=夢幻飛行
EXTD=
EXTT0=
EXTT1=
EXTT2=
EXTT3=
EXTT4=
EXTT5=
EXTT6=
EXTT7=
EXTT8=
EXTT9=
EXTT10=
EXTT11=
PLAYORDER=
